HIERARCHY
ROOT Hips
{
 OFFSET 0.000000 0.000000 0.000000
 CHANNELS 6 Xposition Yposition Zposition Yrotation Xrotation Zrotation
 JOINT Chest
 {
  OFFSET 0.000000 9.585900 0.002600
  CHANNELS 3 Yrotation Xrotation Zrotation
  JOINT Chest2
  {
   OFFSET 0.000000 9.601200 -0.005300
   CHANNELS 3 Yrotation Xrotation Zrotation
   JOINT Chest3
   {
    OFFSET 0.000000 9.561800 0.000000
    CHANNELS 3 Yrotation Xrotation Zrotation
    JOINT Chest4
    {
     OFFSET 0.000000 9.552100 0.000000
     CHANNELS 3 Yrotation Xrotation Zrotation
     JOINT Neck
     {
      OFFSET 0.000000 14.453000 0.000000
      CHANNELS 3 Yrotation Xrotation Zrotation
      JOINT Head
      {
       OFFSET 0.000000 8.936500 -0.011300
       CHANNELS 3 Yrotation Xrotation Zrotation
       End Site
       {
        OFFSET 0.000000 17.073600 -0.006000
       }
      }
     }
     JOINT RightCollar
     {
      OFFSET -2.921100 9.558500 0.000000
      CHANNELS 3 Yrotation Xrotation Zrotation
      JOINT RightShoulder
      {
       OFFSET -13.519700 0.000000 0.000000
       CHANNELS 3 Yrotation Xrotation Zrotation
       JOINT RightElbow
       {
        OFFSET 0.000000 -29.696600 0.000000
        CHANNELS 3 Yrotation Xrotation Zrotation
        JOINT RightWrist
        {
         OFFSET 0.000000 -24.004700 0.000000
         CHANNELS 3 Yrotation Xrotation Zrotation
         End Site
         {
          OFFSET 0.000000 -17.728500 0.000000
         }
        }
       }
      }
     }
     JOINT LeftCollar
     {
      OFFSET 2.921100 9.558500 0.000000
      CHANNELS 3 Yrotation Xrotation Zrotation
      JOINT LeftShoulder
      {
       OFFSET 13.519700 0.000000 0.000000
       CHANNELS 3 Yrotation Xrotation Zrotation
       JOINT LeftElbow
       {
        OFFSET 0.000000 -29.696600 0.000000
        CHANNELS 3 Yrotation Xrotation Zrotation
        JOINT LeftWrist
        {
         OFFSET 0.000000 -24.004700 0.000000
         CHANNELS 3 Yrotation Xrotation Zrotation
         End Site
         {
          OFFSET 0.000000 -17.728500 0.000000
         }
        }
       }
      }
     }
    }
   }
  }
 }
 JOINT RightHip
 {
  OFFSET -7.771700 -0.012900 -0.001300
  CHANNELS 3 Yrotation Xrotation Zrotation
  JOINT RightKnee
  {
   OFFSET 0.000000 -40.869800 0.001200
   CHANNELS 3 Yrotation Xrotation Zrotation
   JOINT RightAnkle
   {
    OFFSET 0.000000 -39.717900 0.002100
    CHANNELS 3 Yrotation Xrotation Zrotation
    JOINT RightToe
    {
     OFFSET 0.000000 -4.965400 11.033500
     CHANNELS 3 Yrotation Xrotation Zrotation
     End Site
     {
      OFFSET 0.000000 -1.423100 5.872300
     }
    }
   }
  }
 }
 JOINT LeftHip
 {
  OFFSET 7.771700 -0.012900 -0.001300
  CHANNELS 3 Yrotation Xrotation Zrotation
  JOINT LeftKnee
  {
   OFFSET 0.000000 -40.869800 0.001200
   CHANNELS 3 Yrotation Xrotation Zrotation
   JOINT LeftAnkle
   {
    OFFSET 0.000000 -39.717900 0.002100
    CHANNELS 3 Yrotation Xrotation Zrotation
    JOINT LeftToe
    {
     OFFSET 0.000000 -4.965400 11.033500
     CHANNELS 3 Yrotation Xrotation Zrotation
     End Site
     {
      OFFSET 0.000000 -1.423100 5.872300
     }
    }
   }
  }
 }
}
MOTION
Frames: 5
Frame Time: 0.008333
0.000000 85.388000 0.000000 0.000000 -5.767877 0.000000 0.000000 11.653817 0.000000 0.000000 -5.885947 0.000000 0.000000 -0.000000 0.000000 0.000000 -0.000000 0.000000 0.000000 12.528835 0.000000 0.000000 0.711642 0.000000 0.000000 -0.000000 0.000000 0.000000 0.000000 -90.000000 0.000000 -2.309062 0.000000 0.000000 2.309062 0.000000 0.000000 -0.000000 0.000000 0.000000 -0.000000 90.000000 0.000000 -2.309062 0.000000 0.000000 2.309062 0.000000 0.000000 8.520406 0.000000 0.000000 1.905762 0.000000 -0.000000 -4.658285 0.000000 0.000000 -0.000000 0.000000 0.000000 8.520406 0.000000 0.000000 1.905762 0.000000 -0.000000 -4.658285 0.000000 0.000000 -0.000000 0.000000
-44.921167 57.248237 19.762995 160.938514 -12.052389 -0.164358 2.965360 10.244910 1.825588 0.189015 0.689527 0.057761 0.264354 1.165236 0.132964 2.716667 9.607210 1.062478 -7.349597 17.307424 -0.927819 -13.253178 -3.432677 0.752975 4.088683 5.217969 0.321962 -23.516141 -32.271156 -15.778328 -102.934423 -70.140111 100.350191 -8.530145 -5.819059 -24.509553 -8.456466 3.273220 -1.625682 25.066386 -36.454969 16.659302 71.997268 -60.628051 -78.938416 5.171009 -6.498184 6.834004 -14.618758 -60.347826 6.418446 -29.247905 73.001667 -29.306967 -1.623535 -6.576001 -2.356863 -0.145256 0.689799 -0.025002 2.733000 -63.389569 13.814969 39.700626 64.418188 33.040758 -17.878025 -9.123090 5.273207 -0.284119 -1.092646 -0.090942
-44.917753 57.253343 19.739552 160.927999 -12.040104 -0.166107 2.919997 10.232703 1.843932 0.186018 0.681966 0.060058 0.291637 1.164423 0.121217 2.684035 9.563920 1.094932 -7.415969 17.172826 -0.910521 -13.361890 -3.654533 0.777971 4.129075 5.039958 0.304752 -23.450836 -32.712750 -16.100060 -99.923604 -69.191016 96.920760 -8.825385 -5.873287 -25.151480 -8.498297 3.123682 -1.520547 24.883301 -36.811808 17.092373 70.325276 -59.173482 -76.698865 5.358390 -6.644370 7.170136 -14.573919 -60.353384 6.391386 -29.303649 73.022109 -29.345914 -1.632025 -6.605225 -2.352167 -0.139856 0.689567 -0.022365 2.751582 -63.399262 13.819729 39.717874 64.452054 33.053123 -17.878300 -9.146945 5.287009 -0.330268 -1.067417 -0.114475
-44.913770 57.258377 19.718559 160.902634 -11.988537 -0.175116 2.895587 10.185259 1.873405 0.131330 0.677011 0.086046 0.366246 1.157247 0.083635 2.690459 9.555970 1.094219 -7.461440 17.008199 -0.842395 -13.397627 -3.888681 0.814659 4.130767 4.829304 0.323726 -23.421489 -33.089873 -16.395260 -97.353159 -68.142068 93.973423 -9.127396 -5.949659 -25.823315 -8.569444 2.961365 -1.376996 24.700122 -37.144291 17.487720 68.900167 -57.696811 -74.686299 5.543276 -6.781798 7.545509 -14.552948 -60.395212 6.410275 -29.359614 73.035359 -29.385822 -1.638904 -6.620357 -2.357369 -0.135945 0.684938 -0.019457 2.761851 -63.447860 13.847746 39.753888 64.478418 33.085551 -17.891201 -9.172717 5.293253 -0.333428 -1.056788 -0.119946
-44.910490 57.263429 19.699919 160.853739 -11.902303 -0.180101 2.892739 10.109221 1.897420 0.158371 0.669860 0.075532 0.333209 1.145104 0.099448 2.673763 9.508369 1.123296 -7.431170 16.884934 -0.826327 -13.363080 -4.129667 0.860343 4.176305 4.673296 0.298077 -23.403036 -33.391721 -16.676203 -95.272850 -67.067829 91.519955 -9.430268 -6.057180 -26.498087 -8.587397 2.845251 -1.293800 24.512400 -37.437152 17.862628 67.712286 -56.241046 -72.864764 5.723476 -6.905655 7.939100 -14.528323 -60.469408 6.450850 -29.392513 73.036835 -29.401445 -1.651703 -6.621470 -2.364117 -0.126784 0.682436 -0.027804 2.794675 -63.529521 13.874496 39.779048 64.504666 33.106766 -17.894228 -9.193003 5.300661 -0.325680 -1.050245 -0.123938
